Patient4_TMGait_0pt5_01_right_31_EMG.mot
version=1
nRows=30
nColumns=33
inDegrees=no
endheader
time	1LAddLong	2LGlutMax	3LGlutMed	4LIliopsoas	5LSemiMemb	6LBicFemLong	7LRecFem	8LVastMed	9LVastLat	10LGasMed	11LTibAnt	12lTibPost	13LPeroneusLong	14LSol	15LExtDigLong	16LFlexDigLong	17RAddLong	18RGlutMax	19RGlutMed	20RIliopsoas	21RSemiMemb	22RBicFemLong	23RRecFem	24RVastMed	25RVastLat	26RGasMed	27RTibAnt	28RTibPost	29RPeroneusLong	30RSol	31RExtDigLong	32RFlexDigLong
40.75	0.011902	0.020752	0.043488	0.014191	-0.004883	-0.41321	0.057678	-0.005035	-0.012054	0.62332	0.002747	0.050964	-0.02121	0.53238	0.017242	-0.32852	-0.033417	-0.019379	0.063934	-0.10559	0.042572	-0.045776	0.1976	-0.035095	-0.026093	-0.004883	0.72342	-0.005798	-0.18356	-0.097351	-0.002747	-0.007629
40.751	0.017395	0.049591	0.08316	-0.003815	-0.00061	-0.18738	0.1149	-0.019836	-0.037689	0.73196	0.00061	-0.24536	-0.059357	0.5159	0.05249	-0.22919	-0.032806	-0.002747	0.027313	-0.023346	0.040131	-0.036316	0.10101	-0.034485	-0.012207	0.002747	-0.23346	0.001526	-0.14145	-0.11765	-0.003357	-0.001373
40.752	0.010986	0.022125	0.0354	-0.003357	-0.022583	-0.058441	0.12878	-0.018005	-0.035553	0.76294	-0.008698	-0.084686	-0.10681	0.18158	0.050507	1.0785	-0.017853	-0.088043	-0.14481	-0.005951	0.046692	-0.029297	0.051422	0.029144	-0.02121	0.002594	-0.79697	-0.000763	-0.11643	-0.050964	0.000305	-0.001068
40.753	0.009613	0.020752	0.019989	0.011139	-0.033569	-0.027618	0.084686	-0.01297	-0.037079	0.31082	0.007629	-0.042419	-0.19791	-0.20081	0.029449	0.029297	-0.014801	-0.13031	-0.26047	-0.033417	0.047913	-0.024872	0.044403	-0.01358	0.002136	0.000763	-0.68329	0.003052	-0.091858	-0.001221	-0.000458	-0.008698
40.754	0.014343	-0.025787	-0.029297	0.028381	-0.06546	-0.016022	0.00885	-0.007324	-0.049438	0.49545	-0.005646	-0.013123	-0.18356	-0.24231	0.05249	-0.40146	0.016327	-0.12711	0.051422	-0.076752	0.039673	-0.022278	-0.001526	0.001526	0.003662	0.003204	-0.45624	-0.000305	-0.015717	0.008698	-0.001678	0.000305
40.755	0.007477	0.086517	0.054169	0.008392	0.08667	-0.044556	-0.053558	0.001678	0.007019	0.39902	-0.002136	0.019684	-0.298	-0.57449	0.032501	-0.28641	0.028687	0.007019	0.22873	-0.020599	0.040588	-0.023651	-0.1593	-0.046234	0.001221	0.005798	-0.19073	0.002441	0.006866	-0.019531	0.00061	-0.007629
40.756	0.01236	0.046539	0.013733	0.006561	0.10605	-0.011902	-0.07843	0.006714	0.16144	-0.56534	-0.009613	0.037994	-0.1796	-0.66696	0.006714	0.032349	0.015869	-0.03067	0.1976	0.001678	0.035248	-0.021362	-0.045929	-0.045776	-0.006256	0.003204	-0.029449	0.001984	-0.031128	-0.041809	0.000153	-0.01358
40.757	0.005188	-0.033417	-0.08255	0.010376	0.066833	0.004578	-0.064545	-0.00061	0.21439	-1.4456	-0.018005	-0.044708	0.13641	-0.11093	-0.00061	-0.10849	0.010529	-0.075531	0.073242	0.072327	0.0354	0.001526	0.014038	-0.053101	-0.022583	0.004425	0.02182	0.00061	-0.033569	-0.050964	-0.003204	-0.013733
40.758	0.00351	-0.061035	-0.13046	0.00946	0.055847	-0.031738	-0.006409	0.001984	0.19424	-1.1182	-0.025177	-0.090179	0.18753	0.14175	-0.031891	0.038147	-0.00412	-0.035706	0.023193	0.18616	0.034637	0.008698	-0.013275	-0.045471	-0.019531	-0.005035	-0.17349	-0.000153	0.11612	-0.06012	-0.00351	-0.009155
40.759	0.017548	-0.14023	-0.18921	0.009308	0.064392	-0.063782	-0.011902	0.003204	0.15671	-0.26016	-0.016632	0.22385	0.11139	0.011139	-0.058441	0.097046	0.036163	-0.024414	-0.050507	0.13733	0.036469	0.00473	0.000763	-0.054779	-0.022888	0.00473	-0.19516	0.001984	-0.21851	-0.10269	-0.001984	-0.00885
40.76	-0.006256	-0.14633	-0.10483	0.00473	0.058594	0.018768	0.046082	0.007172	0.15305	-0.035858	0.003967	0.13123	-0.02121	-0.24017	-0.03067	0.14374	0.041504	-0.049896	-0.050201	0.12909	0.027466	0.009918	0.044403	-0.096588	-0.023346	0.007477	-0.22263	0.001678	-0.37338	-0.13016	-0.001526	-0.00824
40.761	-0.002899	-0.17425	-0.085449	0.002747	0.029144	0.021057	0.11581	0.010834	-0.013885	-0.10071	0.012512	0.19531	-0.032959	-0.59509	-0.004883	0.22308	0.031891	-0.039215	-0.029907	0.061646	0.018311	0.007172	0.019379	-0.061951	-0.029144	0.001526	-0.07782	0.00412	-0.10071	-0.09903	-0.003357	-0.011597
40.762	-0.00473	-0.18448	-0.11993	-0.001221	0.018768	0.002136	0.11597	0.001984	-0.36545	-0.13138	0.011292	0.52231	-0.034943	-0.15854	0	0.10696	0.015869	-0.031586	-0.018005	0.082855	0.007629	0.006409	0.04837	-0.10849	-0.021667	0.009613	0.17532	0.001526	0.5278	-0.12177	-0.00473	-0.006409
40.763	0.002594	-0.20783	-0.12238	0.006256	0.022278	0.027161	0.070953	-0.003815	-0.30899	-0.021362	0.032654	-0.18753	-0.015106	0.25177	-0.054016	-0.83771	0.024872	-0.037079	-0.026093	0.005951	-0.013428	0.024872	0.061493	-0.085144	-0.020142	0.009308	0.33508	0.002441	0.12833	-0.11719	-0.005951	-0.002747
40.764	0.003052	-0.17532	-0.076599	0.014954	0.026855	0.059052	0.068359	0.001373	-0.21744	0.18387	0.03006	-0.11292	-0.014648	0.38574	-0.056458	0.56397	0.042114	-0.070496	-0.020599	0.005951	-0.016937	0.002747	0.060577	-0.11169	-0.037842	0.002289	0.46249	0.000458	-0.76004	-0.050201	-0.007629	0.003052
40.765	-0.002441	-0.11673	-0.03952	-0.001373	0.011749	0.080719	0.05188	0.009918	-0.10101	0.25253	0.035858	-0.12009	0.005951	0.4628	-0.050507	0.91995	0.07431	-0.038605	0.04837	0.044861	-0.012665	-0.008087	0.063477	-0.088501	-0.030212	-0.006409	0.41275	-0.000763	-0.48782	0.032196	-0.003052	-0.007019
40.766	-0.003357	-0.085907	-0.082855	-0.002289	0.007324	0.076599	0.047302	0.003204	0.042725	0.14572	0.007629	-0.11734	-0.010834	0.61401	-0.025024	-1.0062	0.068665	-0.056915	-0.012665	0.031433	-0.004425	-0.008392	0.10162	-0.078278	-0.029907	-0.005798	0.37949	-0.003815	-0.13626	0.050201	-0.00351	0
40.767	0.007629	-0.10834	-0.15564	0.011292	0.001984	0.032349	0.023651	-0.014496	0.029907	-0.18219	0.027771	-0.072937	-0.024872	0.60867	0.018005	0.059357	0.024719	-0.087433	-0.09964	-0.097504	0.005493	-0.021973	0.22385	-0.024567	-0.029144	-0.005798	0.18021	0.002136	0.095825	0.016937	-0.001221	-0.003357
40.768	-0.00061	-0.07431	-0.11383	0.02243	0.010071	0.048065	0.028076	0.008698	-0.005188	-0.2446	0.007477	0.33295	0.10773	0.40527	0.016785	0.067902	-0.00473	-0.14038	-0.13367	-0.093384	0.026703	-0.059052	0.22079	0.026093	-0.024872	-0.006714	0.15472	-0.000305	0.14221	0.084991	0.000305	-0.013733
40.769	0.002441	-0.068817	-0.10803	-0.006714	0.004578	0.036774	0.023651	-0.003967	-0.005951	-0.057831	0.001678	-0.48599	0.090637	0.13718	-0.00473	0.81345	0	-0.10498	-0.086975	0.041046	0.06073	-0.071869	0.21408	0.017242	-0.040741	-0.008698	0.16342	0.001373	0.070038	0.063324	-0.000763	-0.006256
40.77	-0.003052	-0.056915	-0.091858	-0.006866	0.00351	0.04303	0.028687	0.00824	-0.010834	-0.6015	0	-0.15564	0.064697	0.12436	0.066986	-0.25391	-0.041199	-0.14694	0.021973	0.082703	0.057526	-0.036774	0.20035	-0.048981	-0.023041	-0.001678	0.18097	0.001678	-0.025177	-0.021515	0.000305	0.001068
40.771	-0.000153	-0.042572	-0.15991	-0.004883	0.009003	0.00412	0.023804	0.001373	-0.008392	-0.62775	-0.036926	0.044708	0.064545	-0.054474	0.13687	-0.57022	-0.10956	-0.17059	-0.14664	0.059052	0.027466	-0.029907	0.17441	-0.03006	-0.028687	0.001526	-0.35461	-0.001678	-0.085602	-0.077972	0	-0.000916
40.772	-0.004578	-0.050354	-0.12482	0.00885	0.018921	-0.048676	0.030518	-0.001831	-0.019684	-0.10452	-0.053711	-0.12436	-0.050201	-0.082397	0.14053	-0.39734	-0.13397	-0.14282	-0.053253	0.07431	0.022278	-0.005493	0.14847	-0.032654	-0.035706	-0.001678	-0.97351	0.003662	-0.12497	-0.072021	-0.002136	-0.009003
40.773	-0.000305	-0.028687	-0.052948	0.007935	-0.015411	-0.06073	0.05188	0.003204	-0.006714	0.80337	-0.049591	0.033569	-0.32593	-0.37933	0.08194	0.32608	-0.10284	-0.12421	0.04715	0.030823	0.010529	0.003662	0.16937	-0.074463	-0.018616	-0.003662	-0.60669	-0.002136	-0.15701	-0.044708	-0.004883	-0.012054
40.774	0.002594	-0.016785	-0.000763	-0.000458	-0.041046	-0.071716	0.040741	0.006409	0.018616	0.78095	-0.0383	-0.20248	-0.47516	-0.76477	-0.019379	-0.15686	-0.089722	-0.1387	0.029297	-0.014191	0.006409	0.005188	0.098267	0.002289	-0.019684	0.000153	0.076447	0.000153	-0.001221	-0.052338	-0.000916	-0.005341
40.775	0.001678	0.016632	-0.006409	0.011749	-0.00412	-0.069122	0.059357	0.002441	0.005035	0.25146	-0.024414	0.19302	-0.30624	-0.76752	-0.01709	-0.1413	-0.043335	-0.1297	-0.041962	-0.041809	0.006866	0.012054	0.076294	-0.024872	-0.025635	0.006866	0.52536	-0.004883	0.14877	-0.00412	-0.003967	0.001373
40.776	0.012054	0.047455	0.001678	-0.001068	0.023804	-0.048523	0.076294	0.004883	0.001526	-0.19821	-0.016937	0.30289	-0.015259	-0.83588	-0.041199	0.36987	-0.002289	-0.10803	-0.21454	0.021515	0.015106	0.049286	0.12833	-0.021667	-0.016785	0.001678	0.57327	-0.005646	0.11017	0.034943	-0.009613	0.008545
40.777	0.003204	0.073242	0.011292	0.004272	0.016937	0.018311	0.062256	0.006409	0.008087	-0.25436	0.045166	-0.068512	0.12512	-0.85877	-0.046387	0.21393	0.013733	-0.20935	-0.22736	0.04715	0.020447	0.049896	0.10162	-0.005798	-0.03952	0.000458	0.3923	0	0.022278	0.103	0.001221	-0.002899
40.778	0.007324	0.10651	0.000458	0.012054	-0.003815	0.14389	0.049591	0.007019	0.033112	0.31876	0.016785	-0.094604	0.23438	-0.23361	-0.035706	0.29266	0.022125	-0.18723	-0.2269	0.04776	0.027008	0.074615	0.10712	-0.02182	-0.028992	-0.00061	-0.065002	-0.002289	-0.014954	0.10773	-0.004425	-0.006866
40.779	0	0.11246	-0.001526	0.014954	0.026245	0.20432	0.067444	0.004883	0.036163	0.38727	-0.004425	0.077057	0.20142	0.33585	-0.067139	-0.028381	0.031433	-0.15198	-0.18799	0.037537	0.037384	0.061798	0.077057	-0.007935	-0.019073	0.003357	-0.44754	-0.011444	0.015259	0.1033	-0.00351	-0.003662
